<?xml version="1.0" encoding="UTF-8" standalone="no"?><svg xmlns="http://www.w3.org/2000/svg" xmlns:xlink="http://www.w3.org/1999/xlink" contentStyleType="text/css" height="666px" preserveAspectRatio="none" style="width:2607px;height:666px;background:#FFFFFF;" version="1.1" viewBox="0 0 2607 666" width="2607px" zoomAndPan="magnify"><defs/><g><!--MD5=[72136138052d025cffdce3c22fbd185f]
class Product--><g id="elem_Product"><rect codeLine="3" fill="#FFFFFF" height="95.0439" id="Product" rx="2.5" ry="2.5" style="stroke:#000000;stroke-width:1.0;" width="197" x="1317.5" y="459"/><ellipse cx="1384.75" cy="473" fill="#FFFFFF" rx="9" ry="9" style="stroke:#000000;stroke-width:1.0;"/><path d="M1385.7031,469.6406 L1385.7031,476.2969 L1387.4219,476.2969 Q1388.0313,476.2969 1388.2969,476.5313 Q1388.5625,476.7656 1388.5625,477.1563 Q1388.5625,477.5313 1388.2969,477.7656 Q1388.0313,478 1387.4219,478 L1382.2813,478 Q1381.6719,478 1381.4063,477.7656 Q1381.1406,477.5313 1381.1406,477.1406 Q1381.1406,476.7656 1381.4063,476.5313 Q1381.6719,476.2969 1382.2813,476.2969 L1384,476.2969 L1384,469.6406 L1382.2813,469.6406 Q1381.6719,469.6406 1381.4063,469.4063 Q1381.1406,469.1719 1381.1406,468.7813 Q1381.1406,468.4063 1381.4063,468.1719 Q1381.6719,467.9375 1382.2813,467.9375 L1387.4219,467.9375 Q1388.0313,467.9375 1388.2969,468.1719 Q1388.5625,468.4063 1388.5625,468.7813 Q1388.5625,469.1719 1388.2969,469.4063 Q1388.0313,469.6406 1387.4219,469.6406 L1385.7031,469.6406 Z " fill="#000000"/><text fill="#000000" font-family="Verdana" font-size="14" font-style="italic" lengthAdjust="spacing" textLength="55" x="1402.25" y="478.5679">Product</text><line style="stroke:#000000;stroke-width:1.0;" x1="1318.5" x2="1513.5" y1="487" y2="487"/><line style="stroke:#000000;stroke-width:1.0;" x1="1318.5" x2="1513.5" y1="495" y2="495"/><ellipse cx="1328.5" cy="509.0073" fill="#FFFFFF" rx="3" ry="3" style="stroke:#000000;stroke-width:1.0;"/><text fill="#000000" font-family="Verdana" font-size="14" lengthAdjust="spacing" textLength="173" x="1335.5" y="513.0752">getDescription() : String</text><ellipse cx="1328.5" cy="526.022" fill="#FFFFFF" rx="3" ry="3" style="stroke:#000000;stroke-width:1.0;"/><text fill="#000000" font-family="Verdana" font-size="14" lengthAdjust="spacing" textLength="130" x="1335.5" y="530.0898">getPrice() : double</text><ellipse cx="1328.5" cy="543.0366" fill="#FFFFFF" rx="3" ry="3" style="stroke:#000000;stroke-width:1.0;"/><text fill="#000000" font-family="Verdana" font-size="14" lengthAdjust="spacing" textLength="111" x="1335.5" y="547.1045">getId() : Object</text></g><!--MD5=[248f897e4bb16c2722904b15df30346f]
class Logger--><g id="elem_Logger"><rect codeLine="9" fill="#FFFFFF" height="61.0146" id="Logger" rx="2.5" ry="2.5" style="stroke:#000000;stroke-width:1.0;" width="223" x="1967.5" y="261.5"/><ellipse cx="2050.75" cy="275.5" fill="#FFFFFF" rx="9" ry="9" style="stroke:#000000;stroke-width:1.0;"/><path d="M2053.5156,271.375 Q2053.6719,271.1563 2053.8594,271.0469 Q2054.0469,270.9375 2054.2656,270.9375 Q2054.6406,270.9375 2054.875,271.2031 Q2055.1094,271.4531 2055.1094,272.0625 L2055.1094,273.5156 Q2055.1094,274.125 2054.875,274.3906 Q2054.6406,274.6563 2054.2656,274.6563 Q2053.9219,274.6563 2053.7188,274.4531 Q2053.5156,274.2656 2053.4063,273.75 Q2053.3594,273.3906 2053.1719,273.2031 Q2052.8438,272.8281 2052.2344,272.6094 Q2051.625,272.3906 2051,272.3906 Q2050.2344,272.3906 2049.5938,272.7188 Q2048.9688,273.0469 2048.4688,273.7969 Q2047.9844,274.5469 2047.9844,275.5781 L2047.9844,276.6719 Q2047.9844,277.9063 2048.875,278.7344 Q2049.7656,279.5469 2051.3594,279.5469 Q2052.2969,279.5469 2052.9531,279.2969 Q2053.3438,279.1406 2053.7656,278.7031 Q2054.0313,278.4375 2054.1719,278.3594 Q2054.3281,278.2813 2054.5313,278.2813 Q2054.8594,278.2813 2055.1094,278.5469 Q2055.375,278.7969 2055.375,279.1406 Q2055.375,279.4844 2055.0313,279.8906 Q2054.5313,280.4688 2053.7344,280.7969 Q2052.6563,281.25 2051.3594,281.25 Q2049.8438,281.25 2048.6406,280.625 Q2047.6563,280.125 2046.9688,279.0625 Q2046.2813,277.9844 2046.2813,276.7031 L2046.2813,275.5469 Q2046.2813,274.2188 2046.8906,273.0781 Q2047.5156,271.9219 2048.6094,271.3125 Q2049.7031,270.6875 2050.9375,270.6875 Q2051.6719,270.6875 2052.3125,270.8594 Q2052.9688,271.0156 2053.5156,271.375 Z " fill="#000000"/><text fill="#000000" font-family="Verdana" font-size="14" lengthAdjust="spacing" textLength="49" x="2068.25" y="281.0679">Logger</text><line style="stroke:#000000;stroke-width:1.0;" x1="1968.5" x2="2189.5" y1="289.5" y2="289.5"/><line style="stroke:#000000;stroke-width:1.0;" x1="1968.5" x2="2189.5" y1="297.5" y2="297.5"/><ellipse cx="1978.5" cy="311.5073" fill="#FFFFFF" rx="3" ry="3" style="stroke:#000000;stroke-width:1.0;"/><text fill="#000000" font-family="Verdana" font-size="14" lengthAdjust="spacing" textLength="199" x="1985.5" y="315.5752">log(message : String) : void</text></g><!--MD5=[3854aa698878ea31bbbf1eb5d36dee80]
class ProductCatalog--><g id="elem_ProductCatalog"><rect codeLine="13" fill="#FFFFFF" height="95.0439" id="ProductCatalog" rx="2.5" ry="2.5" style="stroke:#000000;stroke-width:1.0;" width="286" x="12" y="244.5"/><ellipse cx="97.75" cy="258.5" fill="#FFFFFF" rx="9" ry="9" style="stroke:#000000;stroke-width:1.0;"/><path d="M100.5156,254.375 Q100.6719,254.1563 100.8594,254.0469 Q101.0469,253.9375 101.2656,253.9375 Q101.6406,253.9375 101.875,254.2031 Q102.1094,254.4531 102.1094,255.0625 L102.1094,256.5156 Q102.1094,257.125 101.875,257.3906 Q101.6406,257.6563 101.2656,257.6563 Q100.9219,257.6563 100.7188,257.4531 Q100.5156,257.2656 100.4063,256.75 Q100.3594,256.3906 100.1719,256.2031 Q99.8438,255.8281 99.2344,255.6094 Q98.625,255.3906 98,255.3906 Q97.2344,255.3906 96.5938,255.7188 Q95.9688,256.0469 95.4688,256.7969 Q94.9844,257.5469 94.9844,258.5781 L94.9844,259.6719 Q94.9844,260.9063 95.875,261.7344 Q96.7656,262.5469 98.3594,262.5469 Q99.2969,262.5469 99.9531,262.2969 Q100.3438,262.1406 100.7656,261.7031 Q101.0313,261.4375 101.1719,261.3594 Q101.3281,261.2813 101.5313,261.2813 Q101.8594,261.2813 102.1094,261.5469 Q102.375,261.7969 102.375,262.1406 Q102.375,262.4844 102.0313,262.8906 Q101.5313,263.4688 100.7344,263.7969 Q99.6563,264.25 98.3594,264.25 Q96.8438,264.25 95.6406,263.625 Q94.6563,263.125 93.9688,262.0625 Q93.2813,260.9844 93.2813,259.7031 L93.2813,258.5469 Q93.2813,257.2188 93.8906,256.0781 Q94.5156,254.9219 95.6094,254.3125 Q96.7031,253.6875 97.9375,253.6875 Q98.6719,253.6875 99.3125,253.8594 Q99.9688,254.0156 100.5156,254.375 Z " fill="#000000"/><text fill="#000000" font-family="Verdana" font-size="14" lengthAdjust="spacing" textLength="107" x="115.25" y="264.0679">ProductCatalog</text><line style="stroke:#000000;stroke-width:1.0;" x1="13" x2="297" y1="272.5" y2="272.5"/><rect fill="none" height="6" style="stroke:#000000;stroke-width:1.0;" width="6" x="20" y="283.5073"/><text fill="#000000" font-family="Verdana" font-size="14" lengthAdjust="spacing" textLength="180" x="30" y="290.5752">products : List&lt;Product&gt;</text><line style="stroke:#000000;stroke-width:1.0;" x1="13" x2="297" y1="297.5146" y2="297.5146"/><ellipse cx="23" cy="311.522" fill="#FFFFFF" rx="3" ry="3" style="stroke:#000000;stroke-width:1.0;"/><text fill="#000000" font-family="Verdana" font-size="14" lengthAdjust="spacing" textLength="262" x="30" y="315.5898">addProduct(product : Product) : void</text><ellipse cx="23" cy="328.5366" fill="#FFFFFF" rx="3" ry="3" style="stroke:#000000;stroke-width:1.0;"/><text fill="#000000" font-family="Verdana" font-size="14" lengthAdjust="spacing" textLength="214" x="30" y="332.6045">getProducts() : List&lt;Product&gt;</text></g><!--MD5=[29e8180dbc7c8b5f5006f6c2e5dbd280]
class UserAuthenticator--><g id="elem_UserAuthenticator"><rect codeLine="19" fill="#FFFFFF" height="95.0439" id="UserAuthenticator" rx="2.5" ry="2.5" style="stroke:#000000;stroke-width:1.0;" width="426" x="333" y="244.5"/><ellipse cx="478.25" cy="258.5" fill="#FFFFFF" rx="9" ry="9" style="stroke:#000000;stroke-width:1.0;"/><path d="M481.0156,254.375 Q481.1719,254.1563 481.3594,254.0469 Q481.5469,253.9375 481.7656,253.9375 Q482.1406,253.9375 482.375,254.2031 Q482.6094,254.4531 482.6094,255.0625 L482.6094,256.5156 Q482.6094,257.125 482.375,257.3906 Q482.1406,257.6563 481.7656,257.6563 Q481.4219,257.6563 481.2188,257.4531 Q481.0156,257.2656 480.9063,256.75 Q480.8594,256.3906 480.6719,256.2031 Q480.3438,255.8281 479.7344,255.6094 Q479.125,255.3906 478.5,255.3906 Q477.7344,255.3906 477.0938,255.7188 Q476.4688,256.0469 475.9688,256.7969 Q475.4844,257.5469 475.4844,258.5781 L475.4844,259.6719 Q475.4844,260.9063 476.375,261.7344 Q477.2656,262.5469 478.8594,262.5469 Q479.7969,262.5469 480.4531,262.2969 Q480.8438,262.1406 481.2656,261.7031 Q481.5313,261.4375 481.6719,261.3594 Q481.8281,261.2813 482.0313,261.2813 Q482.3594,261.2813 482.6094,261.5469 Q482.875,261.7969 482.875,262.1406 Q482.875,262.4844 482.5313,262.8906 Q482.0313,263.4688 481.2344,263.7969 Q480.1563,264.25 478.8594,264.25 Q477.3438,264.25 476.1406,263.625 Q475.1563,263.125 474.4688,262.0625 Q473.7813,260.9844 473.7813,259.7031 L473.7813,258.5469 Q473.7813,257.2188 474.3906,256.0781 Q475.0156,254.9219 476.1094,254.3125 Q477.2031,253.6875 478.4375,253.6875 Q479.1719,253.6875 479.8125,253.8594 Q480.4688,254.0156 481.0156,254.375 Z " fill="#000000"/><text fill="#000000" font-family="Verdana" font-size="14" lengthAdjust="spacing" textLength="128" x="495.75" y="264.0679">UserAuthenticator</text><line style="stroke:#000000;stroke-width:1.0;" x1="334" x2="758" y1="272.5" y2="272.5"/><rect fill="none" height="6" style="stroke:#000000;stroke-width:1.0;" width="6" x="341" y="283.5073"/><text fill="#000000" font-family="Verdana" font-size="14" lengthAdjust="spacing" textLength="201" x="351" y="290.5752">users : Map&lt;String, String&gt;</text><line style="stroke:#000000;stroke-width:1.0;" x1="334" x2="758" y1="297.5146" y2="297.5146"/><ellipse cx="344" cy="311.522" fill="#FFFFFF" rx="3" ry="3" style="stroke:#000000;stroke-width:1.0;"/><text fill="#000000" font-family="Verdana" font-size="14" lengthAdjust="spacing" textLength="381" x="351" y="315.5898">login(username : String, password : String) : boolean</text><ellipse cx="344" cy="328.5366" fill="#FFFFFF" rx="3" ry="3" style="stroke:#000000;stroke-width:1.0;"/><text fill="#000000" font-family="Verdana" font-size="14" lengthAdjust="spacing" textLength="402" x="351" y="332.6045">register(username : String, password : String) : boolean</text></g><!--MD5=[bea4f771074384938728a10a2f7d75fe]
class CartManager--><g id="elem_CartManager"><rect codeLine="25" fill="#FFFFFF" height="180.1172" id="CartManager" rx="2.5" ry="2.5" style="stroke:#000000;stroke-width:1.0;" width="341" x="794.5" y="202"/><ellipse cx="916.75" cy="216" fill="#FFFFFF" rx="9" ry="9" style="stroke:#000000;stroke-width:1.0;"/><path d="M919.5156,211.875 Q919.6719,211.6563 919.8594,211.5469 Q920.0469,211.4375 920.2656,211.4375 Q920.6406,211.4375 920.875,211.7031 Q921.1094,211.9531 921.1094,212.5625 L921.1094,214.0156 Q921.1094,214.625 920.875,214.8906 Q920.6406,215.1563 920.2656,215.1563 Q919.9219,215.1563 919.7188,214.9531 Q919.5156,214.7656 919.4063,214.25 Q919.3594,213.8906 919.1719,213.7031 Q918.8438,213.3281 918.2344,213.1094 Q917.625,212.8906 917,212.8906 Q916.2344,212.8906 915.5938,213.2188 Q914.9688,213.5469 914.4688,214.2969 Q913.9844,215.0469 913.9844,216.0781 L913.9844,217.1719 Q913.9844,218.4063 914.875,219.2344 Q915.7656,220.0469 917.3594,220.0469 Q918.2969,220.0469 918.9531,219.7969 Q919.3438,219.6406 919.7656,219.2031 Q920.0313,218.9375 920.1719,218.8594 Q920.3281,218.7813 920.5313,218.7813 Q920.8594,218.7813 921.1094,219.0469 Q921.375,219.2969 921.375,219.6406 Q921.375,219.9844 921.0313,220.3906 Q920.5313,220.9688 919.7344,221.2969 Q918.6563,221.75 917.3594,221.75 Q915.8438,221.75 914.6406,221.125 Q913.6563,220.625 912.9688,219.5625 Q912.2813,218.4844 912.2813,217.2031 L912.2813,216.0469 Q912.2813,214.7188 912.8906,213.5781 Q913.5156,212.4219 914.6094,211.8125 Q915.7031,211.1875 916.9375,211.1875 Q917.6719,211.1875 918.3125,211.3594 Q918.9688,211.5156 919.5156,211.875 Z " fill="#000000"/><text fill="#000000" font-family="Verdana" font-size="14" lengthAdjust="spacing" textLength="89" x="934.25" y="221.5679">CartManager</text><line style="stroke:#000000;stroke-width:1.0;" x1="795.5" x2="1134.5" y1="230" y2="230"/><rect fill="none" height="6" style="stroke:#000000;stroke-width:1.0;" width="6" x="802.5" y="241.0073"/><text fill="#000000" font-family="Verdana" font-size="14" lengthAdjust="spacing" textLength="163" x="812.5" y="248.0752">instance : CartManager</text><rect fill="none" height="6" style="stroke:#000000;stroke-width:1.0;" width="6" x="802.5" y="258.022"/><text fill="#000000" font-family="Verdana" font-size="14" lengthAdjust="spacing" textLength="184" x="812.5" y="265.0898">cartItems : List&lt;Product&gt;</text><line style="stroke:#000000;stroke-width:1.0;" x1="795.5" x2="1134.5" y1="272.0293" y2="272.0293"/><ellipse cx="805.5" cy="286.0366" fill="#FFFFFF" rx="3" ry="3" style="stroke:#000000;stroke-width:1.0;"/><text fill="#000000" font-family="Verdana" font-size="14" lengthAdjust="spacing" textLength="200" x="812.5" y="290.1045">getInstance() : CartManager</text><ellipse cx="805.5" cy="303.0513" fill="#FFFFFF" rx="3" ry="3" style="stroke:#000000;stroke-width:1.0;"/><text fill="#000000" font-family="Verdana" font-size="14" lengthAdjust="spacing" textLength="262" x="812.5" y="307.1191">addProduct(product : Product) : void</text><ellipse cx="805.5" cy="320.0659" fill="#FFFFFF" rx="3" ry="3" style="stroke:#000000;stroke-width:1.0;"/><text fill="#000000" font-family="Verdana" font-size="14" lengthAdjust="spacing" textLength="317" x="812.5" y="324.1338">removeProduct(productId : String) : boolean</text><ellipse cx="805.5" cy="337.0806" fill="#FFFFFF" rx="3" ry="3" style="stroke:#000000;stroke-width:1.0;"/><text fill="#000000" font-family="Verdana" font-size="14" lengthAdjust="spacing" textLength="119" x="812.5" y="341.1484">clearCart() : void</text><ellipse cx="805.5" cy="354.0952" fill="#FFFFFF" rx="3" ry="3" style="stroke:#000000;stroke-width:1.0;"/><text fill="#000000" font-family="Verdana" font-size="14" lengthAdjust="spacing" textLength="222" x="812.5" y="358.1631">getCartItems() : List&lt;Product&gt;</text><ellipse cx="805.5" cy="371.1099" fill="#FFFFFF" rx="3" ry="3" style="stroke:#000000;stroke-width:1.0;"/><text fill="#000000" font-family="Verdana" font-size="14" lengthAdjust="spacing" textLength="165" x="812.5" y="375.1777">getTotalPrice() : double</text></g><!--MD5=[18fe620d353c7278b252292b5533264b]
class ProductFactory--><g id="elem_ProductFactory"><rect codeLine="36" fill="#FFFFFF" height="61.0146" id="ProductFactory" rx="2.5" ry="2.5" style="stroke:#000000;stroke-width:1.0;" width="626" x="1171" y="261.5"/><ellipse cx="1427.25" cy="275.5" fill="#FFFFFF" rx="9" ry="9" style="stroke:#000000;stroke-width:1.0;"/><path d="M1430.0156,271.375 Q1430.1719,271.1563 1430.3594,271.0469 Q1430.5469,270.9375 1430.7656,270.9375 Q1431.1406,270.9375 1431.375,271.2031 Q1431.6094,271.4531 1431.6094,272.0625 L1431.6094,273.5156 Q1431.6094,274.125 1431.375,274.3906 Q1431.1406,274.6563 1430.7656,274.6563 Q1430.4219,274.6563 1430.2188,274.4531 Q1430.0156,274.2656 1429.9063,273.75 Q1429.8594,273.3906 1429.6719,273.2031 Q1429.3438,272.8281 1428.7344,272.6094 Q1428.125,272.3906 1427.5,272.3906 Q1426.7344,272.3906 1426.0938,272.7188 Q1425.4688,273.0469 1424.9688,273.7969 Q1424.4844,274.5469 1424.4844,275.5781 L1424.4844,276.6719 Q1424.4844,277.9063 1425.375,278.7344 Q1426.2656,279.5469 1427.8594,279.5469 Q1428.7969,279.5469 1429.4531,279.2969 Q1429.8438,279.1406 1430.2656,278.7031 Q1430.5313,278.4375 1430.6719,278.3594 Q1430.8281,278.2813 1431.0313,278.2813 Q1431.3594,278.2813 1431.6094,278.5469 Q1431.875,278.7969 1431.875,279.1406 Q1431.875,279.4844 1431.5313,279.8906 Q1431.0313,280.4688 1430.2344,280.7969 Q1429.1563,281.25 1427.8594,281.25 Q1426.3438,281.25 1425.1406,280.625 Q1424.1563,280.125 1423.4688,279.0625 Q1422.7813,277.9844 1422.7813,276.7031 L1422.7813,275.5469 Q1422.7813,274.2188 1423.3906,273.0781 Q1424.0156,271.9219 1425.1094,271.3125 Q1426.2031,270.6875 1427.4375,270.6875 Q1428.1719,270.6875 1428.8125,270.8594 Q1429.4688,271.0156 1430.0156,271.375 Z " fill="#000000"/><text fill="#000000" font-family="Verdana" font-size="14" lengthAdjust="spacing" textLength="106" x="1444.75" y="281.0679">ProductFactory</text><line style="stroke:#000000;stroke-width:1.0;" x1="1172" x2="1796" y1="289.5" y2="289.5"/><line style="stroke:#000000;stroke-width:1.0;" x1="1172" x2="1796" y1="297.5" y2="297.5"/><ellipse cx="1182" cy="311.5073" fill="#FFFFFF" rx="3" ry="3" style="stroke:#000000;stroke-width:1.0;"/><text fill="#000000" font-family="Verdana" font-size="14" lengthAdjust="spacing" textLength="602" x="1189" y="315.5752">createProduct(type : String, id : String, description : String, price : double) : Product</text></g><!--MD5=[335f4d9be48430461c68bf6d6fdba145]
class App--><g id="elem_App"><rect codeLine="40" fill="#FFFFFF" height="129.0732" id="App" rx="2.5" ry="2.5" style="stroke:#000000;stroke-width:1.0;" width="262" x="1094" y="12"/><ellipse cx="1207.25" cy="26" fill="#FFFFFF" rx="9" ry="9" style="stroke:#000000;stroke-width:1.0;"/><path d="M1210.0156,21.875 Q1210.1719,21.6563 1210.3594,21.5469 Q1210.5469,21.4375 1210.7656,21.4375 Q1211.1406,21.4375 1211.375,21.7031 Q1211.6094,21.9531 1211.6094,22.5625 L1211.6094,24.0156 Q1211.6094,24.625 1211.375,24.8906 Q1211.1406,25.1563 1210.7656,25.1563 Q1210.4219,25.1563 1210.2188,24.9531 Q1210.0156,24.7656 1209.9063,24.25 Q1209.8594,23.8906 1209.6719,23.7031 Q1209.3438,23.3281 1208.7344,23.1094 Q1208.125,22.8906 1207.5,22.8906 Q1206.7344,22.8906 1206.0938,23.2188 Q1205.4688,23.5469 1204.9688,24.2969 Q1204.4844,25.0469 1204.4844,26.0781 L1204.4844,27.1719 Q1204.4844,28.4063 1205.375,29.2344 Q1206.2656,30.0469 1207.8594,30.0469 Q1208.7969,30.0469 1209.4531,29.7969 Q1209.8438,29.6406 1210.2656,29.2031 Q1210.5313,28.9375 1210.6719,28.8594 Q1210.8281,28.7813 1211.0313,28.7813 Q1211.3594,28.7813 1211.6094,29.0469 Q1211.875,29.2969 1211.875,29.6406 Q1211.875,29.9844 1211.5313,30.3906 Q1211.0313,30.9688 1210.2344,31.2969 Q1209.1563,31.75 1207.8594,31.75 Q1206.3438,31.75 1205.1406,31.125 Q1204.1563,30.625 1203.4688,29.5625 Q1202.7813,28.4844 1202.7813,27.2031 L1202.7813,26.0469 Q1202.7813,24.7188 1203.3906,23.5781 Q1204.0156,22.4219 1205.1094,21.8125 Q1206.2031,21.1875 1207.4375,21.1875 Q1208.1719,21.1875 1208.8125,21.3594 Q1209.4688,21.5156 1210.0156,21.875 Z " fill="#000000"/><text fill="#000000" font-family="Verdana" font-size="14" lengthAdjust="spacing" textLength="28" x="1224.75" y="31.5679">App</text><line style="stroke:#000000;stroke-width:1.0;" x1="1095" x2="1355" y1="40" y2="40"/><rect fill="none" height="6" style="stroke:#000000;stroke-width:1.0;" width="6" x="1102" y="51.0073"/><text fill="#000000" font-family="Verdana" font-size="14" lengthAdjust="spacing" textLength="238" x="1112" y="58.0752">authenticator : UserAuthenticator</text><rect fill="none" height="6" style="stroke:#000000;stroke-width:1.0;" width="6" x="1102" y="68.022"/><text fill="#000000" font-family="Verdana" font-size="14" lengthAdjust="spacing" textLength="191" x="1112" y="75.0898">cartManager : CartManager</text><rect fill="none" height="6" style="stroke:#000000;stroke-width:1.0;" width="6" x="1102" y="85.0366"/><text fill="#000000" font-family="Verdana" font-size="14" lengthAdjust="spacing" textLength="109" x="1112" y="92.1045">logger : Logger</text><rect fill="none" height="6" style="stroke:#000000;stroke-width:1.0;" width="6" x="1102" y="102.0513"/><text fill="#000000" font-family="Verdana" font-size="14" lengthAdjust="spacing" textLength="237" x="1112" y="109.1191">availableProducts : List&lt;Product&gt;</text><rect fill="none" height="6" style="stroke:#000000;stroke-width:1.0;" width="6" x="1102" y="119.0659"/><text fill="#000000" font-family="Verdana" font-size="14" lengthAdjust="spacing" textLength="128" x="1112" y="126.1338">scanner : Scanner</text><line style="stroke:#000000;stroke-width:1.0;" x1="1095" x2="1355" y1="133.0732" y2="133.0732"/></g><!--MD5=[405bf8b03449eb832091b9f03a42c0d2]
class PaymentProcessor--><g id="elem_PaymentProcessor"><rect codeLine="48" fill="#FFFFFF" height="78.0293" id="PaymentProcessor" rx="2.5" ry="2.5" style="stroke:#000000;stroke-width:1.0;" width="580" x="1789" y="37.5"/><ellipse cx="2010.75" cy="51.5" fill="#FFFFFF" rx="9" ry="9" style="stroke:#000000;stroke-width:1.0;"/><path d="M2013.5156,47.375 Q2013.6719,47.1563 2013.8594,47.0469 Q2014.0469,46.9375 2014.2656,46.9375 Q2014.6406,46.9375 2014.875,47.2031 Q2015.1094,47.4531 2015.1094,48.0625 L2015.1094,49.5156 Q2015.1094,50.125 2014.875,50.3906 Q2014.6406,50.6563 2014.2656,50.6563 Q2013.9219,50.6563 2013.7188,50.4531 Q2013.5156,50.2656 2013.4063,49.75 Q2013.3594,49.3906 2013.1719,49.2031 Q2012.8438,48.8281 2012.2344,48.6094 Q2011.625,48.3906 2011,48.3906 Q2010.2344,48.3906 2009.5938,48.7188 Q2008.9688,49.0469 2008.4688,49.7969 Q2007.9844,50.5469 2007.9844,51.5781 L2007.9844,52.6719 Q2007.9844,53.9063 2008.875,54.7344 Q2009.7656,55.5469 2011.3594,55.5469 Q2012.2969,55.5469 2012.9531,55.2969 Q2013.3438,55.1406 2013.7656,54.7031 Q2014.0313,54.4375 2014.1719,54.3594 Q2014.3281,54.2813 2014.5313,54.2813 Q2014.8594,54.2813 2015.1094,54.5469 Q2015.375,54.7969 2015.375,55.1406 Q2015.375,55.4844 2015.0313,55.8906 Q2014.5313,56.4688 2013.7344,56.7969 Q2012.6563,57.25 2011.3594,57.25 Q2009.8438,57.25 2008.6406,56.625 Q2007.6563,56.125 2006.9688,55.0625 Q2006.2813,53.9844 2006.2813,52.7031 L2006.2813,51.5469 Q2006.2813,50.2188 2006.8906,49.0781 Q2007.5156,47.9219 2008.6094,47.3125 Q2009.7031,46.6875 2010.9375,46.6875 Q2011.6719,46.6875 2012.3125,46.8594 Q2012.9688,47.0156 2013.5156,47.375 Z " fill="#000000"/><text fill="#000000" font-family="Verdana" font-size="14" lengthAdjust="spacing" textLength="129" x="2028.25" y="57.0679">PaymentProcessor</text><line style="stroke:#000000;stroke-width:1.0;" x1="1790" x2="2368" y1="65.5" y2="65.5"/><rect fill="none" height="6" style="stroke:#000000;stroke-width:1.0;" width="6" x="1797" y="76.5073"/><text fill="#000000" font-family="Verdana" font-size="14" lengthAdjust="spacing" textLength="109" x="1807" y="83.5752">logger : Logger</text><line style="stroke:#000000;stroke-width:1.0;" x1="1790" x2="2368" y1="90.5146" y2="90.5146"/><ellipse cx="1800" cy="104.522" fill="#FFFFFF" rx="3" ry="3" style="stroke:#000000;stroke-width:1.0;"/><text fill="#000000" font-family="Verdana" font-size="14" lengthAdjust="spacing" textLength="556" x="1807" y="108.5898">processPayment(amount : double, paymentDetails : PaymentDetails) : boolean</text></g><!--MD5=[c0dc12954b7564a58826a1327fba5c89]
class PaymentDetails--><g id="elem_PaymentDetails"><rect codeLine="53" fill="#FFFFFF" height="95.0439" id="PaymentDetails" rx="2.5" ry="2.5" style="stroke:#000000;stroke-width:1.0;" width="196" x="2404" y="29"/><ellipse cx="2444.75" cy="43" fill="#FFFFFF" rx="9" ry="9" style="stroke:#000000;stroke-width:1.0;"/><path d="M2447.5156,38.875 Q2447.6719,38.6563 2447.8594,38.5469 Q2448.0469,38.4375 2448.2656,38.4375 Q2448.6406,38.4375 2448.875,38.7031 Q2449.1094,38.9531 2449.1094,39.5625 L2449.1094,41.0156 Q2449.1094,41.625 2448.875,41.8906 Q2448.6406,42.1563 2448.2656,42.1563 Q2447.9219,42.1563 2447.7188,41.9531 Q2447.5156,41.7656 2447.4063,41.25 Q2447.3594,40.8906 2447.1719,40.7031 Q2446.8438,40.3281 2446.2344,40.1094 Q2445.625,39.8906 2445,39.8906 Q2444.2344,39.8906 2443.5938,40.2188 Q2442.9688,40.5469 2442.4688,41.2969 Q2441.9844,42.0469 2441.9844,43.0781 L2441.9844,44.1719 Q2441.9844,45.4063 2442.875,46.2344 Q2443.7656,47.0469 2445.3594,47.0469 Q2446.2969,47.0469 2446.9531,46.7969 Q2447.3438,46.6406 2447.7656,46.2031 Q2448.0313,45.9375 2448.1719,45.8594 Q2448.3281,45.7813 2448.5313,45.7813 Q2448.8594,45.7813 2449.1094,46.0469 Q2449.375,46.2969 2449.375,46.6406 Q2449.375,46.9844 2449.0313,47.3906 Q2448.5313,47.9688 2447.7344,48.2969 Q2446.6563,48.75 2445.3594,48.75 Q2443.8438,48.75 2442.6406,48.125 Q2441.6563,47.625 2440.9688,46.5625 Q2440.2813,45.4844 2440.2813,44.2031 L2440.2813,43.0469 Q2440.2813,41.7188 2440.8906,40.5781 Q2441.5156,39.4219 2442.6094,38.8125 Q2443.7031,38.1875 2444.9375,38.1875 Q2445.6719,38.1875 2446.3125,38.3594 Q2446.9688,38.5156 2447.5156,38.875 Z " fill="#000000"/><text fill="#000000" font-family="Verdana" font-size="14" lengthAdjust="spacing" textLength="107" x="2462.25" y="48.5679">PaymentDetails</text><line style="stroke:#000000;stroke-width:1.0;" x1="2405" x2="2599" y1="57" y2="57"/><rect fill="none" height="6" style="stroke:#000000;stroke-width:1.0;" width="6" x="2412" y="68.0073"/><text fill="#000000" font-family="Verdana" font-size="14" lengthAdjust="spacing" textLength="172" x="2422" y="75.0752">paymentMethod : String</text><rect fill="none" height="6" style="stroke:#000000;stroke-width:1.0;" width="6" x="2412" y="85.022"/><text fill="#000000" font-family="Verdana" font-size="14" lengthAdjust="spacing" textLength="161" x="2422" y="92.0898">accountDetails : String</text><line style="stroke:#000000;stroke-width:1.0;" x1="2405" x2="2599" y1="99.0293" y2="99.0293"/><ellipse cx="2415" cy="113.0366" fill="#FFFFFF" rx="3" ry="3" style="stroke:#000000;stroke-width:1.0;"/><text fill="#000000" font-family="Verdana" font-size="14" lengthAdjust="spacing" textLength="127" x="2422" y="117.1045">isValid() : boolean</text></g><!--MD5=[de2d47b95436be7b2bdb818306c3ae1c]
class Books--><g id="elem_Books"><rect fill="#FFFFFF" height="44" id="Books" rx="2.5" ry="2.5" style="stroke:#000000;stroke-width:1.0;" width="72" x="1062" y="615"/><ellipse cx="1075" cy="629" fill="#FFFFFF" rx="9" ry="9" style="stroke:#000000;stroke-width:1.0;"/><path d="M1077.7656,624.875 Q1077.9219,624.6563 1078.1094,624.5469 Q1078.2969,624.4375 1078.5156,624.4375 Q1078.8906,624.4375 1079.125,624.7031 Q1079.3594,624.9531 1079.3594,625.5625 L1079.3594,627.0156 Q1079.3594,627.625 1079.125,627.8906 Q1078.8906,628.1563 1078.5156,628.1563 Q1078.1719,628.1563 1077.9688,627.9531 Q1077.7656,627.7656 1077.6563,627.25 Q1077.6094,626.8906 1077.4219,626.7031 Q1077.0938,626.3281 1076.4844,626.1094 Q1075.875,625.8906 1075.25,625.8906 Q1074.4844,625.8906 1073.8438,626.2188 Q1073.2188,626.5469 1072.7188,627.2969 Q1072.2344,628.0469 1072.2344,629.0781 L1072.2344,630.1719 Q1072.2344,631.4063 1073.125,632.2344 Q1074.0156,633.0469 1075.6094,633.0469 Q1076.5469,633.0469 1077.2031,632.7969 Q1077.5938,632.6406 1078.0156,632.2031 Q1078.2813,631.9375 1078.4219,631.8594 Q1078.5781,631.7813 1078.7813,631.7813 Q1079.1094,631.7813 1079.3594,632.0469 Q1079.625,632.2969 1079.625,632.6406 Q1079.625,632.9844 1079.2813,633.3906 Q1078.7813,633.9688 1077.9844,634.2969 Q1076.9063,634.75 1075.6094,634.75 Q1074.0938,634.75 1072.8906,634.125 Q1071.9063,633.625 1071.2188,632.5625 Q1070.5313,631.4844 1070.5313,630.2031 L1070.5313,629.0469 Q1070.5313,627.7188 1071.1406,626.5781 Q1071.7656,625.4219 1072.8594,624.8125 Q1073.9531,624.1875 1075.1875,624.1875 Q1075.9219,624.1875 1076.5625,624.3594 Q1077.2188,624.5156 1077.7656,624.875 Z " fill="#000000"/><text fill="#000000" font-family="Verdana" font-size="14" lengthAdjust="spacing" textLength="44" x="1087" y="634.5679">Books</text><line style="stroke:#000000;stroke-width:1.0;" x1="1063" x2="1133" y1="643" y2="643"/><line style="stroke:#000000;stroke-width:1.0;" x1="1063" x2="1133" y1="651" y2="651"/></g><!--MD5=[9d10522e5ea5271ec6ddad86446bbb60]
class Electronics--><g id="elem_Electronics"><rect fill="#FFFFFF" height="44" id="Electronics" rx="2.5" ry="2.5" style="stroke:#000000;stroke-width:1.0;" width="103" x="1169.5" y="615"/><ellipse cx="1182.5" cy="629" fill="#FFFFFF" rx="9" ry="9" style="stroke:#000000;stroke-width:1.0;"/><path d="M1185.2656,624.875 Q1185.4219,624.6563 1185.6094,624.5469 Q1185.7969,624.4375 1186.0156,624.4375 Q1186.3906,624.4375 1186.625,624.7031 Q1186.8594,624.9531 1186.8594,625.5625 L1186.8594,627.0156 Q1186.8594,627.625 1186.625,627.8906 Q1186.3906,628.1563 1186.0156,628.1563 Q1185.6719,628.1563 1185.4688,627.9531 Q1185.2656,627.7656 1185.1563,627.25 Q1185.1094,626.8906 1184.9219,626.7031 Q1184.5938,626.3281 1183.9844,626.1094 Q1183.375,625.8906 1182.75,625.8906 Q1181.9844,625.8906 1181.3438,626.2188 Q1180.7188,626.5469 1180.2188,627.2969 Q1179.7344,628.0469 1179.7344,629.0781 L1179.7344,630.1719 Q1179.7344,631.4063 1180.625,632.2344 Q1181.5156,633.0469 1183.1094,633.0469 Q1184.0469,633.0469 1184.7031,632.7969 Q1185.0938,632.6406 1185.5156,632.2031 Q1185.7813,631.9375 1185.9219,631.8594 Q1186.0781,631.7813 1186.2813,631.7813 Q1186.6094,631.7813 1186.8594,632.0469 Q1187.125,632.2969 1187.125,632.6406 Q1187.125,632.9844 1186.7813,633.3906 Q1186.2813,633.9688 1185.4844,634.2969 Q1184.4063,634.75 1183.1094,634.75 Q1181.5938,634.75 1180.3906,634.125 Q1179.4063,633.625 1178.7188,632.5625 Q1178.0313,631.4844 1178.0313,630.2031 L1178.0313,629.0469 Q1178.0313,627.7188 1178.6406,626.5781 Q1179.2656,625.4219 1180.3594,624.8125 Q1181.4531,624.1875 1182.6875,624.1875 Q1183.4219,624.1875 1184.0625,624.3594 Q1184.7188,624.5156 1185.2656,624.875 Z " fill="#000000"/><text fill="#000000" font-family="Verdana" font-size="14" lengthAdjust="spacing" textLength="75" x="1194.5" y="634.5679">Electronics</text><line style="stroke:#000000;stroke-width:1.0;" x1="1170.5" x2="1271.5" y1="643" y2="643"/><line style="stroke:#000000;stroke-width:1.0;" x1="1170.5" x2="1271.5" y1="651" y2="651"/></g><!--MD5=[6e17115284426477538ba7ec818be746]
class Clothing--><g id="elem_Clothing"><rect fill="#FFFFFF" height="44" id="Clothing" rx="2.5" ry="2.5" style="stroke:#000000;stroke-width:1.0;" width="86" x="1308" y="615"/><ellipse cx="1321" cy="629" fill="#FFFFFF" rx="9" ry="9" style="stroke:#000000;stroke-width:1.0;"/><path d="M1323.7656,624.875 Q1323.9219,624.6563 1324.1094,624.5469 Q1324.2969,624.4375 1324.5156,624.4375 Q1324.8906,624.4375 1325.125,624.7031 Q1325.3594,624.9531 1325.3594,625.5625 L1325.3594,627.0156 Q1325.3594,627.625 1325.125,627.8906 Q1324.8906,628.1563 1324.5156,628.1563 Q1324.1719,628.1563 1323.9688,627.9531 Q1323.7656,627.7656 1323.6563,627.25 Q1323.6094,626.8906 1323.4219,626.7031 Q1323.0938,626.3281 1322.4844,626.1094 Q1321.875,625.8906 1321.25,625.8906 Q1320.4844,625.8906 1319.8438,626.2188 Q1319.2188,626.5469 1318.7188,627.2969 Q1318.2344,628.0469 1318.2344,629.0781 L1318.2344,630.1719 Q1318.2344,631.4063 1319.125,632.2344 Q1320.0156,633.0469 1321.6094,633.0469 Q1322.5469,633.0469 1323.2031,632.7969 Q1323.5938,632.6406 1324.0156,632.2031 Q1324.2813,631.9375 1324.4219,631.8594 Q1324.5781,631.7813 1324.7813,631.7813 Q1325.1094,631.7813 1325.3594,632.0469 Q1325.625,632.2969 1325.625,632.6406 Q1325.625,632.9844 1325.2813,633.3906 Q1324.7813,633.9688 1323.9844,634.2969 Q1322.9063,634.75 1321.6094,634.75 Q1320.0938,634.75 1318.8906,634.125 Q1317.9063,633.625 1317.2188,632.5625 Q1316.5313,631.4844 1316.5313,630.2031 L1316.5313,629.0469 Q1316.5313,627.7188 1317.1406,626.5781 Q1317.7656,625.4219 1318.8594,624.8125 Q1319.9531,624.1875 1321.1875,624.1875 Q1321.9219,624.1875 1322.5625,624.3594 Q1323.2188,624.5156 1323.7656,624.875 Z " fill="#000000"/><text fill="#000000" font-family="Verdana" font-size="14" lengthAdjust="spacing" textLength="58" x="1333" y="634.5679">Clothing</text><line style="stroke:#000000;stroke-width:1.0;" x1="1309" x2="1393" y1="643" y2="643"/><line style="stroke:#000000;stroke-width:1.0;" x1="1309" x2="1393" y1="651" y2="651"/></g><!--MD5=[153e5ea04f67afc3967c99e4da8fd5b3]
class FoodItems--><g id="elem_FoodItems"><rect fill="#FFFFFF" height="44" id="FoodItems" rx="2.5" ry="2.5" style="stroke:#000000;stroke-width:1.0;" width="103" x="1429.5" y="615"/><ellipse cx="1442.5" cy="629" fill="#FFFFFF" rx="9" ry="9" style="stroke:#000000;stroke-width:1.0;"/><path d="M1445.2656,624.875 Q1445.4219,624.6563 1445.6094,624.5469 Q1445.7969,624.4375 1446.0156,624.4375 Q1446.3906,624.4375 1446.625,624.7031 Q1446.8594,624.9531 1446.8594,625.5625 L1446.8594,627.0156 Q1446.8594,627.625 1446.625,627.8906 Q1446.3906,628.1563 1446.0156,628.1563 Q1445.6719,628.1563 1445.4688,627.9531 Q1445.2656,627.7656 1445.1563,627.25 Q1445.1094,626.8906 1444.9219,626.7031 Q1444.5938,626.3281 1443.9844,626.1094 Q1443.375,625.8906 1442.75,625.8906 Q1441.9844,625.8906 1441.3438,626.2188 Q1440.7188,626.5469 1440.2188,627.2969 Q1439.7344,628.0469 1439.7344,629.0781 L1439.7344,630.1719 Q1439.7344,631.4063 1440.625,632.2344 Q1441.5156,633.0469 1443.1094,633.0469 Q1444.0469,633.0469 1444.7031,632.7969 Q1445.0938,632.6406 1445.5156,632.2031 Q1445.7813,631.9375 1445.9219,631.8594 Q1446.0781,631.7813 1446.2813,631.7813 Q1446.6094,631.7813 1446.8594,632.0469 Q1447.125,632.2969 1447.125,632.6406 Q1447.125,632.9844 1446.7813,633.3906 Q1446.2813,633.9688 1445.4844,634.2969 Q1444.4063,634.75 1443.1094,634.75 Q1441.5938,634.75 1440.3906,634.125 Q1439.4063,633.625 1438.7188,632.5625 Q1438.0313,631.4844 1438.0313,630.2031 L1438.0313,629.0469 Q1438.0313,627.7188 1438.6406,626.5781 Q1439.2656,625.4219 1440.3594,624.8125 Q1441.4531,624.1875 1442.6875,624.1875 Q1443.4219,624.1875 1444.0625,624.3594 Q1444.7188,624.5156 1445.2656,624.875 Z " fill="#000000"/><text fill="#000000" font-family="Verdana" font-size="14" lengthAdjust="spacing" textLength="75" x="1454.5" y="634.5679">FoodItems</text><line style="stroke:#000000;stroke-width:1.0;" x1="1430.5" x2="1531.5" y1="643" y2="643"/><line style="stroke:#000000;stroke-width:1.0;" x1="1430.5" x2="1531.5" y1="651" y2="651"/></g><!--MD5=[7c86cdac1881599a59575b00ae36ae9a]
class Toys--><g id="elem_Toys"><rect fill="#FFFFFF" height="44" id="Toys" rx="2.5" ry="2.5" style="stroke:#000000;stroke-width:1.0;" width="62" x="1568" y="615"/><ellipse cx="1581" cy="629" fill="#FFFFFF" rx="9" ry="9" style="stroke:#000000;stroke-width:1.0;"/><path d="M1583.7656,624.875 Q1583.9219,624.6563 1584.1094,624.5469 Q1584.2969,624.4375 1584.5156,624.4375 Q1584.8906,624.4375 1585.125,624.7031 Q1585.3594,624.9531 1585.3594,625.5625 L1585.3594,627.0156 Q1585.3594,627.625 1585.125,627.8906 Q1584.8906,628.1563 1584.5156,628.1563 Q1584.1719,628.1563 1583.9688,627.9531 Q1583.7656,627.7656 1583.6563,627.25 Q1583.6094,626.8906 1583.4219,626.7031 Q1583.0938,626.3281 1582.4844,626.1094 Q1581.875,625.8906 1581.25,625.8906 Q1580.4844,625.8906 1579.8438,626.2188 Q1579.2188,626.5469 1578.7188,627.2969 Q1578.2344,628.0469 1578.2344,629.0781 L1578.2344,630.1719 Q1578.2344,631.4063 1579.125,632.2344 Q1580.0156,633.0469 1581.6094,633.0469 Q1582.5469,633.0469 1583.2031,632.7969 Q1583.5938,632.6406 1584.0156,632.2031 Q1584.2813,631.9375 1584.4219,631.8594 Q1584.5781,631.7813 1584.7813,631.7813 Q1585.1094,631.7813 1585.3594,632.0469 Q1585.625,632.2969 1585.625,632.6406 Q1585.625,632.9844 1585.2813,633.3906 Q1584.7813,633.9688 1583.9844,634.2969 Q1582.9063,634.75 1581.6094,634.75 Q1580.0938,634.75 1578.8906,634.125 Q1577.9063,633.625 1577.2188,632.5625 Q1576.5313,631.4844 1576.5313,630.2031 L1576.5313,629.0469 Q1576.5313,627.7188 1577.1406,626.5781 Q1577.7656,625.4219 1578.8594,624.8125 Q1579.9531,624.1875 1581.1875,624.1875 Q1581.9219,624.1875 1582.5625,624.3594 Q1583.2188,624.5156 1583.7656,624.875 Z " fill="#000000"/><text fill="#000000" font-family="Verdana" font-size="14" lengthAdjust="spacing" textLength="34" x="1593" y="634.5679">Toys</text><line style="stroke:#000000;stroke-width:1.0;" x1="1569" x2="1629" y1="643" y2="643"/><line style="stroke:#000000;stroke-width:1.0;" x1="1569" x2="1629" y1="651" y2="651"/></g><!--MD5=[953221a5c280c9761077ffdff4366dfb]
class HomeAppliances--><g id="elem_HomeAppliances"><rect fill="#FFFFFF" height="44" id="HomeAppliances" rx="2.5" ry="2.5" style="stroke:#000000;stroke-width:1.0;" width="142" x="1665" y="615"/><ellipse cx="1678" cy="629" fill="#FFFFFF" rx="9" ry="9" style="stroke:#000000;stroke-width:1.0;"/><path d="M1680.7656,624.875 Q1680.9219,624.6563 1681.1094,624.5469 Q1681.2969,624.4375 1681.5156,624.4375 Q1681.8906,624.4375 1682.125,624.7031 Q1682.3594,624.9531 1682.3594,625.5625 L1682.3594,627.0156 Q1682.3594,627.625 1682.125,627.8906 Q1681.8906,628.1563 1681.5156,628.1563 Q1681.1719,628.1563 1680.9688,627.9531 Q1680.7656,627.7656 1680.6563,627.25 Q1680.6094,626.8906 1680.4219,626.7031 Q1680.0938,626.3281 1679.4844,626.1094 Q1678.875,625.8906 1678.25,625.8906 Q1677.4844,625.8906 1676.8438,626.2188 Q1676.2188,626.5469 1675.7188,627.2969 Q1675.2344,628.0469 1675.2344,629.0781 L1675.2344,630.1719 Q1675.2344,631.4063 1676.125,632.2344 Q1677.0156,633.0469 1678.6094,633.0469 Q1679.5469,633.0469 1680.2031,632.7969 Q1680.5938,632.6406 1681.0156,632.2031 Q1681.2813,631.9375 1681.4219,631.8594 Q1681.5781,631.7813 1681.7813,631.7813 Q1682.1094,631.7813 1682.3594,632.0469 Q1682.625,632.2969 1682.625,632.6406 Q1682.625,632.9844 1682.2813,633.3906 Q1681.7813,633.9688 1680.9844,634.2969 Q1679.9063,634.75 1678.6094,634.75 Q1677.0938,634.75 1675.8906,634.125 Q1674.9063,633.625 1674.2188,632.5625 Q1673.5313,631.4844 1673.5313,630.2031 L1673.5313,629.0469 Q1673.5313,627.7188 1674.1406,626.5781 Q1674.7656,625.4219 1675.8594,624.8125 Q1676.9531,624.1875 1678.1875,624.1875 Q1678.9219,624.1875 1679.5625,624.3594 Q1680.2188,624.5156 1680.7656,624.875 Z " fill="#000000"/><text fill="#000000" font-family="Verdana" font-size="14" lengthAdjust="spacing" textLength="114" x="1690" y="634.5679">HomeAppliances</text><line style="stroke:#000000;stroke-width:1.0;" x1="1666" x2="1806" y1="643" y2="643"/><line style="stroke:#000000;stroke-width:1.0;" x1="1666" x2="1806" y1="651" y2="651"/></g><!--MD5=[374a43c156e565e68078fcc29c0afce7]
link App to UserAuthenticator--><g id="link_App_UserAuthenticator"><path codeLine="59" d="M1093.63,110.43 C1003.8,133.82 882.38,167.15 777,202 C740.29,214.14 700.86,228.74 665.15,242.57 " fill="none" id="App-to-UserAuthenticator" style="stroke:#000000;stroke-width:1.0;"/><polygon fill="#000000" points="660.36,244.43,670.1968,244.9164,665.0238,242.6274,667.3127,237.4544,660.36,244.43" style="stroke:#000000;stroke-width:1.0;"/></g><!--MD5=[e5bf06a5774180b54f24081d2ee4c789]
link App to CartManager--><g id="link_App_CartManager"><path codeLine="60" d="M1147.34,141.27 C1125.42,159.27 1101.11,179.23 1077.57,198.56 " fill="none" id="App-to-CartManager" style="stroke:#000000;stroke-width:1.0;"/><polygon fill="#000000" points="1073.5,201.91,1082.997,199.301,1077.3679,198.7415,1077.9274,193.1124,1073.5,201.91" style="stroke:#000000;stroke-width:1.0;"/></g><!--MD5=[8b732f83c45da775350861e14e594796]
link App to Logger--><g id="link_App_Logger"><path codeLine="61" d="M1356.24,89.1 C1522.04,104.93 1797.3,135.41 1893,171 C1947.86,191.4 2003.28,230 2039.18,257.93 " fill="none" id="App-to-Logger" style="stroke:#000000;stroke-width:1.0;"/><polygon fill="#000000" points="2043.45,261.28,2038.843,252.5751,2039.5179,258.1915,2033.9015,258.8664,2043.45,261.28" style="stroke:#000000;stroke-width:1.0;"/></g><!--MD5=[142f52e0569c18e95f7fb9d8b9a9c169]
link App to ProductFactory--><g id="link_App_ProductFactory"><path codeLine="62" d="M1302.36,141.27 C1348.96,179.68 1406.37,227 1444.01,258.04 " fill="none" id="App-to-ProductFactory" style="stroke:#000000;stroke-width:1.0;"/><polygon fill="#000000" points="1448.05,261.36,1443.6386,252.5543,1444.1879,258.1845,1438.5577,258.7338,1448.05,261.36" style="stroke:#000000;stroke-width:1.0;"/></g><!--MD5=[1b30da476ba8c0855fe4bf26441cb36a]
link App to Product--><g id="link_App_Product"><path codeLine="63" d="M1356.25,86.39 C1512.17,100 1758.37,132.18 1815,202 C1865.39,264.13 1862.47,317.61 1815,382 C1779.68,429.9 1625.62,467.15 1519.6,487.71 " fill="none" id="App-to-Product" style="stroke:#000000;stroke-width:1.0;stroke-dasharray:7.0,7.0;"/><polygon fill="#000000" points="1514.59,488.68,1524.1825,490.9125,1519.5004,487.7379,1522.6751,483.0558,1514.59,488.68" style="stroke:#000000;stroke-width:1.0;"/><polygon fill="#000000" points="1857.885,297.0307,1857.1971,287.5451,1851.7529,289.761,1857.885,297.0307" style="stroke:#000000;stroke-width:1.0;"/><text fill="#000000" font-family="Verdana" font-size="13" lengthAdjust="spacing" textLength="50" x="1865" y="297.5698">creates</text></g><!--MD5=[324c0982c2fcf995fde5a9f02e4c1a38]
link App to ProductCatalog--><g id="link_App_ProductCatalog"><path codeLine="64" d="M1093.86,80.29 C913.86,87.5 582.19,112.92 315,202 C285.78,211.74 255.76,226.86 229.73,241.89 " fill="none" id="App-to-ProductCatalog" style="stroke:#000000;stroke-width:1.0;"/><polygon fill="#000000" points="225.25,244.49,235.0415,243.4284,229.5735,241.9786,231.0233,236.5107,225.25,244.49" style="stroke:#000000;stroke-width:1.0;"/></g><!--MD5=[75d50421cd69226f8d4c2527822d9e9c]
link CartManager to Product--><g id="link_CartManager_Product"><path codeLine="65" d="M1135.6,373.79 C1141.47,376.56 1147.28,379.3 1153,382 C1205.6,406.8 1264.16,434.31 1312.64,457.06 " fill="none" id="CartManager-to-Product" style="stroke:#000000;stroke-width:1.0;"/><polygon fill="#000000" points="1317.3,459.24,1310.8564,451.7915,1312.7749,457.1131,1307.4533,459.0316,1317.3,459.24" style="stroke:#000000;stroke-width:1.0;"/><text fill="#000000" font-family="Verdana" font-size="13" lengthAdjust="spacing" textLength="56" x="1248" y="426.0698">contains</text></g><!--MD5=[708f97628a555ec2aabd5cc8e318e9a5]
link PaymentProcessor to Logger--><g id="link_PaymentProcessor_Logger"><path codeLine="66" d="M2079,115.67 C2079,155.62 2079,217.78 2079,256.36 " fill="none" id="PaymentProcessor-to-Logger" style="stroke:#000000;stroke-width:1.0;"/><polygon fill="#000000" points="2079,261.4,2083,252.4,2079,256.4,2075,252.4,2079,261.4" style="stroke:#000000;stroke-width:1.0;"/></g><!--MD5=[e1555936384a6ef874d18e11d1a89269]
reverse link Product to Books--><g id="link_Product_Books"><path codeLine="68" d="M1298.54,554.96 C1240.31,578.49 1174.08,605.26 1134.2,621.37 " fill="none" id="Product-backto-Books" style="stroke:#000000;stroke-width:1.0;"/><polygon fill="none" points="1295.96,548.46,1317.13,547.45,1301.21,561.44,1295.96,548.46" style="stroke:#000000;stroke-width:1.0;"/></g><!--MD5=[e5e89988297f2705ce0e06afa9b267e1]
reverse link Product to Electronics--><g id="link_Product_Electronics"><path codeLine="69" d="M1328.36,565.25 C1301.5,582.95 1273.63,601.32 1253.02,614.9 " fill="none" id="Product-backto-Electronics" style="stroke:#000000;stroke-width:1.0;"/><polygon fill="none" points="1324.77,559.23,1345.32,554.07,1332.48,570.92,1324.77,559.23" style="stroke:#000000;stroke-width:1.0;"/></g><!--MD5=[26000b47d09678502e2e3becf64fa5a2]
reverse link Product to Clothing--><g id="link_Product_Clothing"><path codeLine="70" d="M1383.26,572.23 C1375.43,587.71 1367.62,603.15 1361.64,614.96 " fill="none" id="Product-backto-Clothing" style="stroke:#000000;stroke-width:1.0;"/><polygon fill="none" points="1377.08,568.94,1392.35,554.25,1389.57,575.26,1377.08,568.94" style="stroke:#000000;stroke-width:1.0;"/></g><!--MD5=[3d022abdb20f9d3d833f0d857a706ed7]
reverse link Product to FoodItems--><g id="link_Product_FoodItems"><path codeLine="71" d="M1448.74,572.23 C1456.57,587.71 1464.38,603.15 1470.36,614.96 " fill="none" id="Product-backto-FoodItems" style="stroke:#000000;stroke-width:1.0;"/><polygon fill="none" points="1442.43,575.26,1439.65,554.25,1454.92,568.94,1442.43,575.26" style="stroke:#000000;stroke-width:1.0;"/></g><!--MD5=[b08932c059fb75eebb60ad1ad4d20703]
reverse link Product to Toys--><g id="link_Product_Toys"><path codeLine="72" d="M1498.97,565.76 C1523.95,583.3 1549.79,601.44 1568.95,614.9 " fill="none" id="Product-backto-Toys" style="stroke:#000000;stroke-width:1.0;"/><polygon fill="none" points="1494.67,571.3,1482.33,554.07,1502.72,559.84,1494.67,571.3" style="stroke:#000000;stroke-width:1.0;"/></g><!--MD5=[caa53f7de0180078d4b21683952e57db]
reverse link Product to HomeAppliances--><g id="link_Product_HomeAppliances"><path codeLine="73" d="M1533.25,554.59 C1584.73,575.26 1642.58,598.49 1683.27,614.82 " fill="none" id="Product-backto-HomeAppliances" style="stroke:#000000;stroke-width:1.0;"/><polygon fill="none" points="1530.57,561.05,1514.62,547.1,1535.79,548.06,1530.57,561.05" style="stroke:#000000;stroke-width:1.0;"/></g><!--MD5=[cd00412ec0f053c8ce0cb49fea5d6ddc]
@startuml umldiagram
!theme plain

interface Product {
    + getDescription() : String
    + getPrice() : double
    + getId() : Object
}

class Logger {
    + log(message : String) : void
}

class ProductCatalog {
    - products : List<Product>
    + addProduct(product : Product) : void
    + getProducts() : List<Product>
}

class UserAuthenticator {
    - users : Map<String, String>
    + login(username : String, password : String) : boolean
    + register(username : String, password : String) : boolean
}

class CartManager {
    - instance : CartManager
    - cartItems : List<Product>
    + getInstance() : CartManager
    + addProduct(product : Product) : void
    + removeProduct(productId : String) : boolean
    + clearCart() : void
    + getCartItems() : List<Product>
    + getTotalPrice() : double
}

class ProductFactory {
    + createProduct(type : String, id : String, description : String, price : double) : Product
}

class App {
    - authenticator : UserAuthenticator
    - cartManager : CartManager
    - logger : Logger
    - availableProducts : List<Product>
    - scanner : Scanner
}

class PaymentProcessor {
    - logger : Logger
    + processPayment(amount : double, paymentDetails : PaymentDetails) : boolean
}

class PaymentDetails {
    - paymentMethod : String
    - accountDetails : String
    + isValid() : boolean
}

App - -> UserAuthenticator
App - -> CartManager
App - -> Logger
App - -> ProductFactory
App .down.> Product : creates >
App - -> ProductCatalog
CartManager - -> Product : contains
PaymentProcessor - -> Logger

Product <|- - Books
Product <|- - Electronics
Product <|- - Clothing
Product <|- - FoodItems
Product <|- - Toys
Product <|- - HomeAppliances

@enduml

@startuml umldiagram







<style>
  root {
    BackgroundColor white
    FontColor black
    FontName Verdana
    HyperLinkColor blue
    LineColor black
    LineThickness 1
    Margin 5
  }
  caption {
    LineThickness 0
  }
  footer {
    LineThickness 0
  }
  header {
    LineThickness 0
  }
  node {
    MaximumWidth 300
  }
  title {
    FontSize 22
    LineThickness 0
  }
</style>

skinparam ArrowLollipopColor black
skinparam BackgroundColor white
skinparam DefaultFontName Verdana
skinparam DefaultMonospacedFontName Courier
skinparam LifelineStrategy nosolid
skinparam ParticipantPadding 10
skinparam SequenceLifeLineBorderColor black
skinparam Shadowing false
skinparam UseBetaStyle true

skinparam Activity {
  BackgroundColor white
  BarColor black
  BorderColor black
  FontColor black
  FontName Verdana
}
skinparam Boundary {
  FontColor black
}
skinparam Box {
  Padding 5
}
skinparam CircledCharacter {
  FontColor black
  FontName Courier
  Radius 9
}
skinparam Class {
  BackgroundColor white
  BorderColor black
  FontColor black
  FontName Verdana
}
skinparam ClassAttribute {
  FontColor black
  FontName Verdana
}
skinparam ClassStereotype {
  FontColor black
  FontName Verdana
}
skinparam Footer {
  FontColor black
  FontName Verdana
}
skinparam Header {
  FontColor black
  FontName Verdana
}
skinparam Hyperlink {
  Color blue
}
skinparam IconPackage {
  Color black
  BackgroundColor white
}
skinparam IconPrivate {
  Color black
  BackgroundColor white
}
skinparam IconProtected {
  Color black
  BackgroundColor white
}
skinparam IconPublic {
  Color black
  BackgroundColor white
}
skinparam Note {
  FontColor black
  FontName Verdana
}
skinparam Object {
  BorderColor black
}
skinparam Package {
  BorderColor black
  FontColor black
  FontName Verdana
}
skinparam State {
  BackgroundColor white
  BorderColor black
}
skinparam StereotypeA {
  BackgroundColor white
  BorderColor black
}
skinparam StereotypeC {
  BackgroundColor white
  BorderColor black
}
skinparam StereotypeE {
  BackgroundColor white
  BorderColor black
}
skinparam StereotypeI {
  BackgroundColor white
  BorderColor black
}
skinparam StereotypeN {
  BackgroundColor white
  BorderColor black
}
skinparam UseCaseStereoType {
  FontColor black
  FontName Verdana
}

interface Product {
    + getDescription() : String
    + getPrice() : double
    + getId() : Object
}

class Logger {
    + log(message : String) : void
}

class ProductCatalog {
    - products : List<Product>
    + addProduct(product : Product) : void
    + getProducts() : List<Product>
}

class UserAuthenticator {
    - users : Map<String, String>
    + login(username : String, password : String) : boolean
    + register(username : String, password : String) : boolean
}

class CartManager {
    - instance : CartManager
    - cartItems : List<Product>
    + getInstance() : CartManager
    + addProduct(product : Product) : void
    + removeProduct(productId : String) : boolean
    + clearCart() : void
    + getCartItems() : List<Product>
    + getTotalPrice() : double
}

class ProductFactory {
    + createProduct(type : String, id : String, description : String, price : double) : Product
}

class App {
    - authenticator : UserAuthenticator
    - cartManager : CartManager
    - logger : Logger
    - availableProducts : List<Product>
    - scanner : Scanner
}

class PaymentProcessor {
    - logger : Logger
    + processPayment(amount : double, paymentDetails : PaymentDetails) : boolean
}

class PaymentDetails {
    - paymentMethod : String
    - accountDetails : String
    + isValid() : boolean
}

App - -> UserAuthenticator
App - -> CartManager
App - -> Logger
App - -> ProductFactory
App .down.> Product : creates >
App - -> ProductCatalog
CartManager - -> Product : contains
PaymentProcessor - -> Logger

Product <|- - Books
Product <|- - Electronics
Product <|- - Clothing
Product <|- - FoodItems
Product <|- - Toys
Product <|- - HomeAppliances

@enduml

PlantUML version 1.2022.7(Mon Aug 22 12:01:30 CDT 2022)
(GPL source distribution)
Java Runtime: OpenJDK Runtime Environment
JVM: OpenJDK 64-Bit Server VM
Default Encoding: Cp1252
Language: en
Country: US
--></g></svg>